<svg width="402" height="239" viewBox="0 0 402 239" fill="none" xmlns="http://www.w3.org/2000/svg">
<path d="M231.947 30.3013L214.613 12.9613L201.653 -5.14309e-05L188.68 12.9613L170.067 31.5693H133V49.9053H157.347H177.667L182.12 45.4519L201.653 25.9319L219.907 44.1839L224.347 48.6373H245.44H269.013V30.3013H231.947Z" fill="white"/>
<path d="M173.253 90.6279C178.253 86.9346 184 84.1973 190.227 82.6813C190.68 82.5706 191.133 82.4666 191.587 82.3692V61.4532H135.533V79.7879V156.797H153.867V132.162V126.141V79.7879H173.253V90.6279Z" fill="white"/>
<path d="M211.627 82.3692C212.08 82.4666 212.534 82.5706 212.987 82.6813C219.214 84.1973 224.96 86.9346 229.96 90.6279V79.7879H249.347V126.141V132.162V156.797H267.68V79.7879V61.4532H211.627V82.3692Z" fill="white"/>
<path d="M211.627 150.699C208.574 152.123 205.174 152.909 201.614 152.909C198.027 152.909 194.64 152.123 191.587 150.699C183.467 146.928 177.827 138.696 177.827 129.151C177.827 119.6 183.467 111.369 191.587 107.584C194.64 106.161 198.027 105.373 201.614 105.373C205.174 105.373 208.574 106.161 211.627 107.584C219.747 111.369 225.373 119.6 225.373 129.151C225.373 138.696 219.747 146.928 211.627 150.699ZM229.96 98.02C224.84 93.3587 218.574 89.932 211.627 88.2414C208.414 87.4614 205.054 87.0387 201.614 87.0387C198.147 87.0387 194.8 87.4614 191.587 88.2414C184.64 89.932 178.36 93.3587 173.254 98.02C164.8 105.719 159.494 116.817 159.494 129.151C159.494 152.396 178.36 171.245 201.614 171.245C224.867 171.245 243.72 152.396 243.72 129.151C243.72 116.817 238.414 105.719 229.96 98.02Z" fill="white"/>
<path d="M17.5066 209.96C12.0933 208.445 10.2667 206.62 10.2667 202.716C10.2667 198.916 11.9334 197.074 15.36 197.074C19.0534 197.074 20.84 198.99 22.3733 201.869L22.6799 202.433L29.5066 197.505L29.2667 197.074C26.32 191.641 21.6934 189 15.16 189C4.84003 189 1.16003 196.08 1.16003 202.716C1.16003 210.568 4.98661 215.304 13.2133 217.649C19.4799 219.416 20.6667 221.612 20.6667 225.027C20.6667 228.916 18.8799 230.816 15.2133 230.816C11.3199 230.816 9.51995 229.183 7.34661 225.961L7.03997 225.486L0 230.385L0.279948 230.845C3.71995 236.249 8.77331 238.876 15.7066 238.876C25.4133 238.876 29.76 231.75 29.76 224.685C29.76 216.551 26.32 212.424 17.5066 209.96Z" fill="white"/>
<path d="M56.6133 216.372L43.4667 189.623H35.48V238.268H44.5733V211.919L57.5868 238.268H65.7201V189.623H56.6133V216.372Z" fill="white"/>
<path d="M90.7732 220.409H82.9599L86.9332 204.556L90.7732 220.409ZM82.5199 189.623L68.9065 238.268H78.4798L80.9065 228.411H92.7732L95.2532 238.268H104.893L91.2131 189.623H82.5199Z" fill="white"/>
<path d="M117.333 197.624H121.52C126.427 197.624 128.613 199.955 128.613 205.195C128.613 210.597 126.493 212.899 121.52 212.899H117.333V197.624ZM122.613 189.623H108.213V238.268H117.333V220.9H122.613C132.066 220.9 137.706 215.036 137.706 205.195C137.706 195.293 132.213 189.623 122.613 189.623Z" fill="white"/>
<path d="M139.133 196.956H149.813V237.525H157.44V196.956H168.107V190.365H139.133V196.956Z" fill="white"/>
<path d="M193.347 216.967C193.347 227.104 191.147 231.617 186.2 231.617C181.267 231.617 179.067 227.104 179.067 216.967V210.909C179.067 200.771 181.267 196.259 186.2 196.259C191.147 196.259 193.347 200.771 193.347 210.909V216.967ZM186.2 189.741C176.693 189.741 171.453 197.268 171.453 210.909V216.967C171.453 230.623 176.693 238.133 186.2 238.133C195.72 238.133 200.96 230.623 200.96 216.967V210.909C200.96 197.268 195.72 189.741 186.2 189.741Z" fill="white"/>
<path d="M222.013 220.098H228.48V220.291C228.2 228.084 226.107 231.557 221.68 231.557C216.733 231.557 214.547 227.06 214.547 216.967V210.909C214.547 200.831 216.733 196.333 221.68 196.333C225.56 196.333 227.707 199.004 228.453 204.735H235.667C234.453 194.923 229.627 189.741 221.68 189.741C212.173 189.741 206.933 197.386 206.933 211.251V216.967C206.933 230.623 212.173 238.133 221.68 238.133C231.147 238.133 235.76 231.216 235.76 216.967V213.508H222.013V220.098Z" fill="white"/>
<path d="M243.373 237.525H267.16V231.008H250.987V216.372H265.44V209.856H250.987V196.956H267.16V190.365H243.373V237.525Z" fill="white"/>
<path d="M269.88 196.956H280.573V237.525H288.187V196.956H298.853V190.365H269.88V196.956Z" fill="white"/>
<path d="M325.133 209.856H311.613V190.365H304V237.525H311.613V216.372H325.133V237.525H332.747V190.365H325.133V209.856Z" fill="white"/>
<path d="M342.013 237.525H365.813V231.008H349.64V216.372H364.093V209.856H349.64V196.956H365.813V190.365H342.013V237.525Z" fill="white"/>
<path d="M385.506 211.711H380.213V196.881H385.506C390.68 196.881 392.987 199.183 392.987 204.364C392.987 209.514 390.76 211.711 385.506 211.711ZM393.8 216.95L393.96 216.878C398.32 214.902 400.613 210.583 400.613 204.364C400.613 195.338 395.507 190.365 386.253 190.365H372.6V237.525H380.213V218.228H386.533L386.573 218.361L393.546 237.525H401.827L393.8 216.95Z" fill="white"/>
</svg>
