<svg width="137" height="172" viewBox="0 0 137 172" fill="none" xmlns="http://www.w3.org/2000/svg">
<path d="M98.9467 30.3013L81.6134 12.9613L68.6534 -5.14309e-05L55.6801 12.9613L37.0667 31.5693H0V49.9053H24.3467H44.6667L49.12 45.4519L68.6534 25.9319L86.9066 44.1839L91.3467 48.6373H112.44H136.013V30.3013H98.9467Z" fill="white"/>
<path d="M40.2535 90.6279C45.2535 86.9346 51.0001 84.1973 57.2268 82.6813C57.6801 82.5706 58.1335 82.4666 58.5868 82.3692V61.4532H2.53345V79.7879V156.797H20.8668V132.162V126.141V79.7879H40.2535V90.6279Z" fill="white"/>
<path d="M78.6268 82.3692C79.0802 82.4666 79.5335 82.5706 79.9869 82.6813C86.2135 84.1973 91.9602 86.9346 96.9602 90.6279V79.7879H116.347V126.141V132.162V156.797H134.68V79.7879V61.4532H78.6268V82.3692Z" fill="white"/>
<path d="M78.6269 150.699C75.5735 152.123 72.1736 152.909 68.6136 152.909C65.0269 152.909 61.6402 152.123 58.5869 150.699C50.4669 146.928 44.8269 138.696 44.8269 129.151C44.8269 119.6 50.4669 111.369 58.5869 107.584C61.6402 106.161 65.0269 105.373 68.6136 105.373C72.1736 105.373 75.5735 106.161 78.6269 107.584C86.7469 111.369 92.3735 119.6 92.3735 129.151C92.3735 138.696 86.7469 146.928 78.6269 150.699ZM96.9602 98.02C91.8402 93.3587 85.5735 89.932 78.6269 88.2414C75.4135 87.4614 72.0536 87.0387 68.6136 87.0387C65.1469 87.0387 61.8002 87.4614 58.5869 88.2414C51.6402 89.932 45.3602 93.3587 40.2536 98.02C31.8002 105.719 26.4935 116.817 26.4935 129.151C26.4935 152.396 45.3602 171.245 68.6136 171.245C91.8669 171.245 110.72 152.396 110.72 129.151C110.72 116.817 105.414 105.719 96.9602 98.02Z" fill="white"/>
</svg>
